<?xml version="1.0" standalone="no"?>
<!DOCTYPE svg PUBLIC "-//W3C//DTD SVG 20010904//EN"
 "http://www.w3.org/TR/2001/REC-SVG-20010904/DTD/svg10.dtd">
<svg version="1.0" xmlns="http://www.w3.org/2000/svg"
 width="241.000000pt" height="335.000000pt" viewBox="0 0 241.000000 335.000000"
 preserveAspectRatio="xMidYMid meet">

<g transform="translate(0.000000,335.000000) scale(0.100000,-0.100000)"
fill="#000000" stroke="none">
<path d="M1115 3244 c-38 -7 -90 -13 -115 -14 -25 0 -56 -7 -70 -15 -14 -8
-34 -14 -44 -15 -37 0 -106 -42 -166 -99 -33 -32 -60 -64 -60 -71 0 -7 -7 -21
-16 -31 -8 -9 -16 -30 -17 -45 -2 -22 -8 -30 -26 -32 -16 -3 -20 -6 -12 -11 8
-6 9 -15 2 -32 -5 -13 -17 -51 -27 -84 -9 -33 -21 -67 -26 -75 -4 -8 -18 -40
-30 -70 -29 -75 -37 -286 -15 -392 37 -171 46 -248 46 -403 0 -179 13 -235 85
-370 25 -46 36 -81 36 -109 0 -44 58 -170 108 -236 15 -19 59 -80 97 -137 39
-56 94 -133 124 -170 55 -69 125 -136 116 -112 -7 20 54 83 105 109 25 12 55
28 67 34 15 8 21 17 17 31 -4 16 9 34 50 73 30 29 59 52 64 52 6 0 27 16 48
35 22 19 44 35 49 35 6 0 25 22 44 50 18 27 38 48 43 47 5 -1 15 14 22 33 6
19 26 54 43 78 18 24 35 56 38 73 4 16 12 29 19 29 14 0 60 59 53 67 -3 3 5
15 17 27 62 56 96 247 78 427 -14 139 -15 298 -2 319 7 12 11 8 16 -18 13 -62
19 -20 21 141 2 228 -18 338 -87 465 -21 38 -30 70 -30 101 0 54 -17 77 -79
116 -24 15 -60 43 -81 63 -65 66 -203 130 -295 138 -33 2 -78 6 -100 8 -22 2
-71 -3 -110 -10z m451 -403 c-22 -8 -15 -15 26 -25 17 -4 30 -16 36 -34 5 -16
23 -44 39 -63 78 -89 152 -471 168 -866 4 -106 3 -114 -17 -133 -12 -11 -25
-20 -30 -20 -4 0 -8 -14 -8 -31 0 -24 -3 -30 -16 -25 -9 3 -26 6 -39 6 -13 0
-30 6 -37 13 -7 8 -18 12 -25 10 -7 -3 -10 10 -9 38 2 37 -3 48 -43 95 -54 62
-132 118 -186 133 -22 6 -41 9 -43 6 -3 -2 5 -25 17 -51 18 -38 37 -134 27
-134 -2 0 -17 5 -35 11 -34 12 -40 24 -16 33 32 12 13 26 -35 26 -27 0 -50 -4
-50 -9 0 -17 -156 15 -178 36 -16 15 -56 18 -47 3 3 -6 -5 -10 -19 -10 -27 0
-43 15 -26 25 5 3 10 1 10 -6 0 -8 6 -6 18 4 10 10 23 17 29 17 6 0 14 20 17
45 4 25 11 45 17 45 5 0 9 8 9 18 0 9 11 30 24 45 14 16 23 34 21 40 -2 7 -6
33 -9 60 -4 39 -1 52 20 76 13 16 24 34 24 40 0 22 -66 81 -91 81 -13 0 -40
10 -59 22 -38 23 -75 26 -206 13 -69 -6 -80 -10 -116 -43 -65 -58 -97 -158
-77 -234 4 -16 3 -28 -3 -30 -6 -2 -4 -19 7 -43 14 -34 18 -38 26 -22 6 9 15
17 20 17 6 0 30 9 55 20 41 19 51 20 107 9 34 -7 68 -17 76 -23 11 -8 15 -8
18 1 8 22 33 1 33 -27 0 -21 -16 -44 -63 -92 -60 -59 -104 -97 -117 -99 -32
-4 -47 -11 -67 -33 -12 -14 -23 -32 -23 -40 0 -8 -4 -17 -9 -20 -5 -4 -12 -24
-16 -46 -4 -22 -10 -40 -14 -40 -14 0 -69 58 -87 91 -41 74 -22 650 23 750 33
72 46 128 51 222 1 17 8 27 17 27 8 0 15 4 15 8 0 9 59 32 83 32 9 0 17 3 17
8 0 4 24 7 53 8 28 0 90 11 136 23 73 20 101 23 205 18 111 -4 180 3 231 24
11 4 52 8 90 8 42 0 62 -3 51 -8z m-197 -1131 c28 15 38 13 44 -9 6 -25 -22
-32 -71 -18 -46 13 -46 13 -37 26 4 8 12 8 26 1 13 -7 25 -7 38 0z m311 -55
c0 -2 -9 -9 -20 -15 -16 -9 -18 -8 -14 5 5 13 34 22 34 10z m-323 -42 c2 3 14
-4 25 -15 l20 -20 -21 -19 c-11 -10 -27 -19 -36 -19 -8 0 -15 -7 -15 -15 0
-12 -7 -14 -26 -9 -20 5 -25 4 -19 -6 6 -9 2 -10 -16 -5 -13 5 -44 7 -69 7
-25 -1 -54 3 -65 7 -11 5 -28 12 -37 15 -11 3 -18 15 -18 31 0 29 17 33 36 8
12 -17 13 -17 14 -1 0 24 14 30 45 18 20 -8 31 -7 43 2 24 21 95 36 115 26 10
-5 21 -7 24 -5z m169 -66 c7 -32 14 -43 32 -45 31 -5 44 -32 26 -56 -7 -10
-11 -23 -8 -27 3 -5 1 -9 -5 -9 -5 0 -11 12 -13 27 -3 29 -28 45 -28 18 0 -9
-7 -23 -16 -32 -14 -14 -13 -18 6 -38 23 -24 11 -46 -14 -26 -20 17 -25 3 -10
-28 16 -32 5 -81 -19 -81 -7 0 -24 -11 -37 -25 -19 -20 -30 -24 -52 -20 -19 5
-28 3 -28 -5 0 -9 -4 -9 -13 -2 -15 13 -114 9 -129 -6 -11 -11 -34 -6 -58 13
-8 7 -29 16 -47 20 -19 4 -35 14 -38 26 -7 20 -35 27 -35 7 0 -6 -2 -9 -5 -7
-2 3 -2 15 2 27 4 18 12 22 45 22 33 0 38 -2 29 -14 -9 -11 -4 -14 25 -19 20
-3 46 -1 57 5 51 26 56 27 63 17 4 -6 1 -15 -6 -19 -8 -5 -7 -9 5 -14 19 -7
38 1 30 14 -3 4 2 10 10 14 8 3 15 16 15 30 0 13 7 26 15 30 8 3 15 14 15 24
0 10 4 22 9 28 5 5 12 18 15 29 5 19 3 21 -30 17 -60 -7 -62 18 -4 48 26 14
62 37 79 53 17 15 35 27 41 27 5 0 10 4 10 8 0 5 13 9 28 10 25 0 29 -4 38
-41z m84 -20 c0 -5 -4 -5 -10 -2 -5 3 -10 14 -10 23 0 15 2 15 10 2 5 -8 10
-19 10 -23z m-380 -57 c0 -5 -4 -10 -9 -10 -6 0 -13 5 -16 10 -3 6 1 10 9 10
9 0 16 -4 16 -10z m-200 -170 c0 -5 -4 -10 -9 -10 -6 0 -13 5 -16 10 -3 6 1
10 9 10 9 0 16 -4 16 -10z m113 -5 c-3 -9 -8 -14 -10 -11 -3 3 -2 9 2 15 9 16
15 13 8 -4z"/>
<path d="M1340 2378 c-25 -12 -48 -20 -52 -20 -5 1 -8 -4 -8 -12 0 -7 -7 -19
-15 -26 -8 -7 -15 -29 -15 -50 0 -24 5 -40 15 -44 9 -3 15 -18 15 -39 0 -20 7
-40 18 -49 32 -28 134 -68 173 -68 44 0 120 27 132 47 4 7 14 13 21 13 7 0 25
11 40 25 23 22 26 31 26 95 0 64 -3 73 -27 97 -45 42 -84 53 -185 53 -74 0
-102 -5 -138 -22z"/>
<path d="M1658 1035 c-3 -11 -13 -37 -22 -57 -9 -21 -14 -38 -11 -38 10 0 46
82 43 98 -3 14 -5 14 -10 -3z"/>
<path d="M1570 874 c0 -5 -15 -25 -33 -44 -18 -19 -49 -55 -69 -80 -20 -25
-64 -74 -97 -109 -62 -65 -73 -98 -20 -61 32 23 192 218 216 263 8 16 12 31 9
35 -3 3 -6 1 -6 -4z"/>
</g>
</svg>
